inDegrees=yes
name=ik_example_filtered_mov
DataType=double
version=3
OpenSimVersion=4.5
endheader
time	pelvis_tilt	pelvis_list	pelvis_rotation	pelvis_tx	pelvis_ty	pelvis_tz	hip_flexion_r	hip_adduction_r	hip_rotation_r	knee_angle_r	knee_angle_r_beta	ankle_angle_r	subtalar_angle_r	mtp_angle_r	hip_flexion_l	hip_adduction_l	hip_rotation_l	knee_angle_l	knee_angle_l_beta	ankle_angle_l	subtalar_angle_l	mtp_angle_l	lumbar_extension	lumbar_bending	lumbar_rotation	arm_flex_r	arm_add_r	arm_rot_r	elbow_flex_r	pro_sup_r	wrist_flex_r	wrist_dev_r	arm_flex_l	arm_add_l	arm_rot_l	elbow_flex_l	pro_sup_l	wrist_flex_l	wrist_dev_l
1.002873659133911	-7.827481034603108e-14	0	0	0	0.93	0	0	0	0	0	0	0	0	0	0	0	0	0	0	0	0	0	0	0	0	0	0	0	0	0	0	0	0	0	0	0	0	0	0
1.007544755935669	-7.827481034603108e-14	0	0	0	0.93	0	0.1600047886807944	-0.005239502557888715	-0.04247057884328979	0.3284525123049315	0.005732577776168244	0.008445891733490585	0	0	0	0	0	0	0	0	0	0	0	0	0	0	0	0	0	0	0	0	0	0	0	0	0	0	0
1.012088775634765	-7.827481034603108e-14	0	0	0	0.93	0	0.1581811976663674	-0.005641999776368658	-0.03496723446078019	0.3341046836269824	0.005831226775624833	0.01561568842689676	0	0	0	0	0	0	0	0	0	0	0	0	0	0	0	0	0	0	0	0	0	0	0	0	0	0	0
1.017356872558593	-7.827481034603108e-14	0	0	0	0.93	0	0.1529466582119068	-0.005076787035841343	-0.02873754488390814	0.3404868258291209	0.005942616170382631	0.02402317758692357	0	0	0	0	0	0	0	0	0	0	0	0	0	0	0	0	0	0	0	0	0	0	0	0	0	0	0
1.02234148979187	-7.827481034603151e-14	9.979781156387969e-17	3.422887758385352e-27	1.674416868930484e-18	0.93	1.470398100314086e-17	0.1489576069058195	-0.00460981221340693	-0.02299747197796398	0.3472997383862845	0.006061523926155602	0.03195266281392143	2.857260731495247e-15	4.824512745879373e-16	-4.945057584551966e-26	1.108009375787139e-16	0	7.858488053645643e-15	1.371564907607353e-16	-9.820819189523073e-16	-7.948283419400659e-16	1.004409182806077e-15	-7.037372775137212e-17	0	6.65259997604606e-17	1.445110488406282e-25	-7.20740202815639e-22	-4.912676647495821e-15	7.858487827514861e-15	7.858488492436815e-15	-5.486482954178848e-18	-2.542707137807701e-17	-3.650613943300647e-15	-4.903158707912275e-16	7.497957424260486e-15	7.858487979985753e-15	7.858489098422478e-15	-1.149918327769664e-18	-1.890734951289779e-16
1.027828216552734	-7.827481034603099e-14	0	0	0	0.93	0	0.1445333621418724	-0.003791782159408767	-0.01798036901361464	0.3544243294286195	0.006185871497702443	0.04027461412720667	0	0	0	0	0	0	0	0	0	0	0	0	0	0	0	0	0	0	0	0	0	0	0	0	0	0	0
1.032812118530273	-7.827481034603108e-14	0	0	0	0.93	0	0.1403822693896368	-0.002813148510493553	-0.01366692876100096	0.3616395197185405	0.006311800324419488	0.04861931995023981	0	0	0	0	0	0	0	0	0	0	0	0	0	0	0	0	0	0	0	0	0	0	0	0	0	0	0
1.039321899414062	-7.827481034603108e-14	0	0	0	0.93	0	0.136478595552185	-0.001597031417015308	-0.01026867865340879	0.3694284041542706	0.006447742002880319	0.05719813106066865	0	0	0	0	0	0	0	0	0	0	0	0	0	0	0	0	0	0	0	0	0	0	0	0	0	0	0
1.046386003494262	-7.827481034603108e-14	0	-6.577232924178479e-40	0	0.93	0	0.1329231687403098	-0.0002106110523154567	-0.007791489826570043	0.3774379319908141	0.006587534635158142	0.06589794393980038	0	0	-4.012450208679366e-36	2.963438066317855e-35	0	0	0	0	0	0	0	0	0	0	0	0	0	0	0	1.077613842297402e-35	0	0	0	0	0	0	0
1.051903963088989	-7.827481034603108e-14	0	0	0	0.93	0	0.1297883764955948	0.001318984469247618	-0.00634058877410976	0.3857325405235267	0.006732302864217992	0.07485027926928098	0	0	0	0	0	0	0	0	0	0	0	0	0	0	0	0	0	0	0	0	0	0	0	0	0	0	0
1.055811405181884	-7.827481034659753e-14	-1.636145127147157e-18	5.169546765454264e-25	3.287513448208594e-19	0.93	5.288681684521719e-19	0.1279065336484808	0.002687919844011532	-0.005856823516980603	0.3943243337579675	0.006882257944807484	0.08412672899102804	-3.152515707607041e-19	6.666059910151079e-18	1.308726297095416e-33	-3.654974480075594e-25	3.481760839521389e-24	4.828878507840451e-15	8.408316114606348e-17	2.100249798017334e-18	-3.100533926242538e-18	-3.562852521116378e-17	3.635163446054506e-14	7.685870890511062e-14	3.495294746081972e-14	-1.050379339070373e-14	-8.071241490562044e-19	-3.19131288096832e-18	4.828882376455863e-15	4.828917570183765e-15	-1.280999583361775e-18	4.712367550159678e-17	-1.557877367846605e-17	-6.905508164526876e-18	-1.275442357823468e-17	4.828940100673904e-15	4.828945584845416e-15	9.435546901405687e-18	2.889111055719732e-16
1.060155153274536	-7.827481034603108e-14	0	0	0	0.93	0	0.1251734567165896	0.006001244884399025	-0.006393875789276672	0.4012030903233857	0.007002314895319283	0.09668155379323892	0	0	0	0	0	6.908108431473902e-38	0	0	0	0	0	0	0	0	0	0	0	0	0	0	0	0	0	0	0	0	0
